# xmcd
#
# Track frame offsets: 
#        150
#        10917
#        23397
#        35837
#        48162
#        60657
#        72925
#        83250
#        92252
#        103992
#        115537
#        127702
#        139252
#        149817
#        160387
#        170070
#        182090
#        192907
#        205267
#        216612
#        226760
#
# Disc length: 3186 seconds
#
# Revision: 0
# Processed by: cddbd v1.5.2PL0 Copyright (c) Steve Scherf et al.
# Submitted via: ExactAudioCopy v1.0b3
#
DISCID=210c7015
DTITLE=Otis Blackwell - The Chronological 1952-1954
DYEAR=2005
DGENRE=R&B
TTITLE0=Wake Up Fool
TTITLE1=Foll That I Be
TTITLE2=Number 000
TTITLE3=Please Help Me Find My Way Home
TTITLE4=Tears, Tears, Tears
TTITLE5=Daddy Rolling Stone
TTITLE6=On That Power Line
TTITLE7=Don't Know How I Loved You
TTITLE8=You're My Love
TTITLE9=Go Away Mr. Blues
TTITLE10=Bartender Fill It Up Again
TTITLE11=I'm Travelin' On
TTITLE12=My Josephine
TTITLE13=Ain't Got No Time
TTITLE14=I'm Coming Back Baby
TTITLE15=Nobody Met The Train
TTITLE16=I'm Standing At The Doorway To Your Heart
TTITLE17=I Face This World Alone
TTITLE18=O-O-O-Oh!
TTITLE19=Oh! What A Babe
TTITLE20=Here I Am
EXTD=
EXTT0=
EXTT1=
EXTT2=
EXTT3=
EXTT4=
EXTT5=
EXTT6=
EXTT7=
EXTT8=
EXTT9=
EXTT10=
EXTT11=
EXTT12=
EXTT13=
EXTT14=
EXTT15=
EXTT16=
EXTT17=
EXTT18=
EXTT19=
EXTT20=
PLAYORDER=
